<svg version="1.1" id="Layer_1" xmlns="http://www.w3.org/2000/svg" xmlns:xlink="http://www.w3.org/1999/xlink" x="0px" y="0px"
	 width="100%" viewBox="0 0 96 96" enable-background="new 0 0 96 96" xml:space="preserve">
<path fill="#000000" opacity="1.000000" stroke="none" 
	d="
M63.000000,97.000000 
	C42.000000,97.000000 21.500000,97.000000 1.000000,97.000000 
	C1.000000,65.000000 1.000000,33.000000 1.000000,1.000000 
	C33.000000,1.000000 65.000000,1.000000 97.000000,1.000000 
	C97.000000,33.000000 97.000000,65.000000 97.000000,97.000000 
	C85.833336,97.000000 74.666664,97.000000 63.000000,97.000000 
M29.003132,20.008492 
	C28.174469,19.007444 27.436293,17.256081 26.500515,17.143227 
	C23.449213,16.775244 20.325785,17.005354 17.163584,17.005354 
	C17.087078,18.575760 17.031334,19.720003 16.183891,20.978304 
	C10.351330,21.788754 9.023244,23.170950 9.011592,28.821232 
	C8.978258,44.985928 8.973853,61.150806 9.014235,77.315468 
	C9.028220,82.913612 11.149850,84.981064 16.852489,84.988800 
	C38.183277,85.017738 59.514133,85.012993 80.844940,84.992538 
	C87.075439,84.986565 88.986504,83.007538 88.994698,76.618073 
	C89.012863,62.453094 88.907379,48.287270 89.030426,34.123337 
	C89.126556,23.056757 89.582100,20.587864 75.987289,20.196495 
	C73.602852,14.446601 69.504189,11.858730 63.174572,12.948193 
	C61.240971,13.281007 59.166840,13.239943 57.217007,12.957011 
	C49.928959,11.899477 44.008785,13.442672 40.005749,20.982826 
	C36.345490,20.943443 32.685234,20.904062 29.003132,20.008492 
z"/>
<path fill="#23D997" opacity="1.000000" stroke="none" 
	d="
M76.092331,20.898659 
	C89.582100,20.587864 89.126556,23.056757 89.030426,34.123337 
	C88.907379,48.287270 89.012863,62.453094 88.994698,76.618073 
	C88.986504,83.007538 87.075439,84.986565 80.844940,84.992538 
	C59.514133,85.012993 38.183277,85.017738 16.852489,84.988800 
	C11.149850,84.981064 9.028220,82.913612 9.014235,77.315468 
	C8.973853,61.150806 8.978258,44.985928 9.011592,28.821232 
	C9.023244,23.170950 10.351330,21.788754 17.039268,20.957945 
	C21.604757,20.913284 25.314867,20.888981 29.024977,20.864679 
	C32.685234,20.904062 36.345490,20.943443 40.930893,20.966118 
	C53.268131,20.932491 64.680229,20.915575 76.092331,20.898659 
M44.574894,33.975979 
	C43.260845,35.247921 41.847065,36.432873 40.649223,37.806175 
	C33.804260,45.653778 33.039883,56.720215 38.669445,65.543121 
	C44.384502,74.500015 55.034424,78.930153 64.451462,76.294365 
	C74.577995,73.459991 81.093033,66.854485 82.596771,56.572624 
	C84.022469,46.824299 80.486351,38.338814 71.879974,32.993866 
	C63.057617,27.514786 53.951111,27.698177 44.574894,33.975979 
M25.821407,26.430813 
	C23.389355,24.482841 21.104382,24.558731 19.759291,27.484827 
	C19.484802,28.081947 21.031626,30.317591 22.017786,30.535460 
	C24.498226,31.083464 26.766619,30.480862 25.821407,26.430813 
z"/>
<path fill="#359975" opacity="1.000000" stroke="none" 
	d="
M76.039810,20.547577 
	C64.680229,20.915575 53.268131,20.932491 41.383930,20.922968 
	C44.008785,13.442672 49.928959,11.899477 57.217007,12.957011 
	C59.166840,13.239943 61.240971,13.281007 63.174572,12.948193 
	C69.504189,11.858730 73.602852,14.446601 76.039810,20.547577 
z"/>
<path fill="#68C595" opacity="1.000000" stroke="none" 
	d="
M29.014053,20.436584 
	C25.314867,20.888981 21.604757,20.913284 17.435120,20.900917 
	C17.031334,19.720003 17.087078,18.575760 17.163584,17.005354 
	C20.325785,17.005354 23.449213,16.775244 26.500515,17.143227 
	C27.436293,17.256081 28.174469,19.007444 29.014053,20.436584 
z"/>
<path fill="#359A76" opacity="1.000000" stroke="none" 
	d="
M44.865932,33.754333 
	C53.951111,27.698177 63.057617,27.514786 71.879974,32.993866 
	C80.486351,38.338814 84.022469,46.824299 82.596771,56.572624 
	C81.093033,66.854485 74.577995,73.459991 64.451462,76.294365 
	C55.034424,78.930153 44.384502,74.500015 38.669445,65.543121 
	C33.039883,56.720215 33.804260,45.653778 40.649223,37.806175 
	C41.847065,36.432873 43.260845,35.247921 44.865932,33.754333 
M64.930649,36.152542 
	C61.368305,36.083256 57.734543,35.529091 54.257832,36.041187 
	C45.887226,37.274128 40.556416,45.130192 41.054283,54.778835 
	C41.464348,62.725822 48.861732,70.428024 56.612225,70.977852 
	C65.278503,71.592659 73.823685,66.351280 75.804291,59.007439 
	C78.356720,49.543339 75.121376,40.586670 64.930649,36.152542 
z"/>
<path fill="#65C695" opacity="1.000000" stroke="none" 
	d="
M26.027378,26.717125 
	C26.766619,30.480862 24.498226,31.083464 22.017786,30.535460 
	C21.031626,30.317591 19.484802,28.081947 19.759291,27.484827 
	C21.104382,24.558731 23.389355,24.482841 26.027378,26.717125 
z"/>
<path fill="#87FEB3" opacity="1.000000" stroke="none" 
	d="
M65.301109,36.291973 
	C75.121376,40.586670 78.356720,49.543339 75.804291,59.007439 
	C73.823685,66.351280 65.278503,71.592659 56.612225,70.977852 
	C48.861732,70.428024 41.464348,62.725822 41.054283,54.778835 
	C40.556416,45.130192 45.887226,37.274128 54.257832,36.041187 
	C57.734543,35.529091 61.368305,36.083256 65.301109,36.291973 
M54.855778,49.083904 
	C57.993027,49.301983 61.129677,49.529217 64.267792,49.734055 
	C65.711273,49.828281 67.157608,49.878624 68.602654,49.948864 
	C68.090256,48.498154 67.967453,46.671494 66.995491,45.664261 
	C63.490189,42.031757 55.659008,42.011749 51.410530,45.620678 
	C50.385540,46.491371 50.130310,48.268234 49.521095,49.628384 
	C51.075294,49.573318 52.629494,49.518250 54.855778,49.083904 
z"/>
<path fill="#25DA98" opacity="1.000000" stroke="none" 
	d="
M54.519737,49.273544 
	C52.629494,49.518250 51.075294,49.573318 49.521095,49.628384 
	C50.130310,48.268234 50.385540,46.491371 51.410530,45.620678 
	C55.659008,42.011749 63.490189,42.031757 66.995491,45.664261 
	C67.967453,46.671494 68.090256,48.498154 68.602654,49.948864 
	C67.157608,49.878624 65.711273,49.828281 64.267792,49.734055 
	C61.129677,49.529217 57.993027,49.301983 54.519737,49.273544 
z"/>
</svg>